<svg xmlns="http://www.w3.org/2000/svg" viewBox="0 0 768 768" role="img" aria-labelledby="title desc">
  <title id="title">TrajWeave logo candidate C</title>
  <desc id="desc">A friendly AI loom weaving multiple colored trajectory threads into one path.</desc>
  <rect width="768" height="768" fill="#ffffff"/>
  <circle cx="384" cy="384" r="292" fill="#f4f8fb"/>
  <circle cx="384" cy="384" r="255" fill="#ffffff"/>
  <g fill="none" stroke-linecap="round" stroke-linejoin="round">
    <path d="M115 195 C210 195 230 290 305 308" stroke="#3884e4" stroke-width="22"/>
    <path d="M108 325 C205 325 230 356 305 360" stroke="#18a697" stroke-width="22"/>
    <path d="M120 470 C210 470 232 412 306 404" stroke="#ec635b" stroke-width="22"/>
    <path d="M160 585 C235 560 270 455 332 435" stroke="#efb440" stroke-width="22"/>
  </g>
  <g>
    <rect x="250" y="250" width="268" height="220" rx="48" fill="#2e3a46"/>
    <rect x="276" y="276" width="216" height="168" rx="36" fill="#ffffff"/>
    <circle cx="337" cy="335" r="12" fill="#2e3a46"/>
    <circle cx="433" cy="335" r="12" fill="#2e3a46"/>
    <line x1="340" y1="390" x2="430" y2="390" stroke="#18a697" stroke-width="12" stroke-linecap="round"/>
    <line x1="384" y1="250" x2="384" y2="204" stroke="#2e3a46" stroke-width="8" stroke-linecap="round"/>
    <circle cx="384" cy="190" r="16" fill="#3884e4"/>
  </g>
  <g fill="none" stroke-linecap="round" stroke-linejoin="round">
    <path d="M462 350 C560 275 620 472 680 405" stroke="#ffffff" stroke-width="56"/>
    <path d="M462 350 C560 275 620 472 680 405" stroke="#efb440" stroke-width="38"/>
    <path d="M462 405 C565 525 622 305 680 360" stroke="#ffffff" stroke-width="46"/>
    <path d="M462 405 C565 525 622 305 680 360" stroke="#18a697" stroke-width="28"/>
  </g>
  <g fill="#ffffff">
    <circle cx="215" cy="220" r="8"/><circle cx="255" cy="280" r="8"/><circle cx="215" cy="328" r="8"/><circle cx="255" cy="356" r="8"/>
    <circle cx="215" cy="462" r="8"/><circle cx="265" cy="425" r="8"/><circle cx="545" cy="330" r="9"/><circle cx="610" cy="405" r="9"/><circle cx="570" cy="445" r="9"/>
  </g>
</svg>
